<svg xmlns="http://www.w3.org/2000/svg" xmlns:xlink="http://www.w3.org/1999/xlink" width="46.643" height="46.643" viewBox="0 0 46.643 46.643">
  <defs>
    <clipPath id="clip-path">
      <rect id="Rectángulo_35493" data-name="Rectángulo 35493" width="35.354" height="30.895" fill="none"/>
    </clipPath>
  </defs>
  <g id="Grupo_18601" data-name="Grupo 18601" transform="translate(-267 -668.461)">
    <circle id="Elipse_1002" data-name="Elipse 1002" cx="23.321" cy="23.321" r="23.321" transform="translate(267 668.461)" fill="#f6f0ec"/>
    <g id="Grupo_18578" data-name="Grupo 18578" transform="translate(273.393 674.77)" opacity="0.85">
      <g id="Grupo_18577" data-name="Grupo 18577" clip-path="url(#clip-path)">
        <path id="Trazado_28560" data-name="Trazado 28560" d="M171.712,4.054a4.052,4.052,0,0,0-7.744-1.671,4.052,4.052,0,1,0-6.762,4.311,4.147,4.147,0,0,0,.453.451l6.181,6.139a.2.2,0,0,0,.139.058.192.192,0,0,0,.138-.058l6.411-6.369h0a4.032,4.032,0,0,0,1.185-2.859" transform="translate(-147.874 -0.001)" fill="#879697"/>
        <path id="Trazado_28561" data-name="Trazado 28561" d="M35.343,281.936l.011-.032c-2.554,0-4.117-1.557-6-2.868a8.452,8.452,0,0,0-5.1-1.776c-.989,0-1.829.009-2.543.03H16.525a1.376,1.376,0,0,0,0,2.751H21.4a2.061,2.061,0,0,1,.662,3.844l-1.9.5c-.642.154-1.251.318-1.823.483l-.123.032c-2.141.566-4.448,1.174-4.866,1.272a2.572,2.572,0,0,1-.752-.053l-7.681-4.979L3.53,280.137v0a1.834,1.834,0,0,0-.208-.119A2.042,2.042,0,0,0,3,279.889a2.251,2.251,0,0,0-.271-.059,2.014,2.014,0,0,0-.3-.025,1.962,1.962,0,0,0-.4.041A2.211,2.211,0,0,0,0,282.044a2.185,2.185,0,0,0,.66,1.562v0l.01.008a2.285,2.285,0,0,0,.544.4l.529.384,12.041,8.728h0l.148.057a2.636,2.636,0,0,0,.86.155,2.68,2.68,0,0,0,.517-.052l.06-.016c4.079-1.038,12.508-3.181,16.453-4.152l.284-.106a16.06,16.06,0,0,1,3.239-.553v-.577h.011l-.011-.791v-5.152Z" transform="translate(0 -262.441)" fill="#666"/>
      </g>
    </g>
  </g>
</svg>
