<svg xmlns="http://www.w3.org/2000/svg" xmlns:xlink="http://www.w3.org/1999/xlink" width="44.002" height="26.909" viewBox="0 0 44.002 26.909">
  <defs>
    <clipPath id="clip-path">
      <rect id="Rectángulo_34693" data-name="Rectángulo 34693" width="44.002" height="26.909" fill="#83989a"/>
    </clipPath>
  </defs>
  <g id="Grupo_18197" data-name="Grupo 18197" clip-path="url(#clip-path)">
    <path id="Trazado_26064" data-name="Trazado 26064" d="M8.1,26.909A1.453,1.453,0,0,1,6.65,25.458V21.975a.306.306,0,0,0-.172-.275A11.405,11.405,0,0,1,11.4,0h.01a11.378,11.378,0,0,1,8.207,3.484A.818.818,0,1,1,18.44,4.62,9.694,9.694,0,0,0,11.41,1.636H11.4A9.775,9.775,0,0,0,7.186,20.225a1.95,1.95,0,0,1,1.1,1.749v3.036l3.37-3.37a1.965,1.965,0,0,1,1.114-.551c3.838-.534,8.413-2.647,8.413-9.68a13.608,13.608,0,0,1,.892-5.071,9.582,9.582,0,0,1,2.484-3.6A11.752,11.752,0,0,1,32.588,0H32.6a11.411,11.411,0,0,1,4.922,21.7.306.306,0,0,0-.172.275v3.484a1.45,1.45,0,0,1-2.476,1.026L31.189,22.8a.316.316,0,0,0-.182-.088,11.426,11.426,0,0,1-6.788-3.551.818.818,0,0,1,1.2-1.111,9.785,9.785,0,0,0,5.813,3.042,1.965,1.965,0,0,1,1.114.551l3.37,3.37V21.975a1.95,1.95,0,0,1,1.1-1.749A9.775,9.775,0,0,0,32.6,1.636h-.013a10.155,10.155,0,0,0-6.935,2.319c-1.881,1.693-2.835,4.2-2.835,7.455a11.161,11.161,0,0,1-2.856,8.047,10.112,10.112,0,0,1-3.145,2.185A13.954,13.954,0,0,1,13,22.709a.316.316,0,0,0-.182.088L9.126,26.484a1.446,1.446,0,0,1-1.024.426" transform="translate(0 0)" fill="#83989a"/>
    <path id="Trazado_26065" data-name="Trazado 26065" d="M884.59,338.921a1.092,1.092,0,1,1,1.088,1.088,1.093,1.093,0,0,1-1.088-1.088" transform="translate(-857.154 -327.347)" fill="#83989a"/>
    <path id="Trazado_26066" data-name="Trazado 26066" d="M1018.59,338.921a1.092,1.092,0,1,1,1.088,1.088,1.093,1.093,0,0,1-1.088-1.088" transform="translate(-986.998 -327.347)" fill="#83989a"/>
    <path id="Trazado_26067" data-name="Trazado 26067" d="M1161.59,338.921a1.092,1.092,0,1,1,1.088,1.088,1.093,1.093,0,0,1-1.088-1.088" transform="translate(-1125.563 -327.347)" fill="#83989a"/>
    <path id="Trazado_26068" data-name="Trazado 26068" d="M267.568,214.89c0-2.716,2.392-1.435,2.392-3.454a1.452,1.452,0,0,0-1.565-1.378,1.487,1.487,0,0,0-1.573,1.508c0,.045,0,.089.006.133a.23.23,0,0,1-.23.248h-1.165a.231.231,0,0,1-.23-.215c-.005-.074-.009-.15-.009-.223a3.2,3.2,0,0,1,6.389-.073c0,2.708-2.343,2.043-2.343,3.34v.523a.231.231,0,0,1-.231.231H267.8a.231.231,0,0,1-.231-.231Zm-.178,2.643a1.058,1.058,0,1,1,1.062,1.054,1.06,1.06,0,0,1-1.062-1.054" transform="translate(-256.968 -201.98)" fill="#83989a"/>
  </g>
</svg>
