<svg xmlns="http://www.w3.org/2000/svg" xmlns:xlink="http://www.w3.org/1999/xlink" width="89.703" height="124.57" viewBox="0 0 89.703 124.57">
  <defs>
    <filter id="Rectángulo_35409" x="0" y="0" width="89.703" height="124.57" filterUnits="userSpaceOnUse">
      <feOffset dy="3" input="SourceAlpha"/>
      <feGaussianBlur stdDeviation="3" result="blur"/>
      <feFlood flood-opacity="0.161"/>
      <feComposite operator="in" in2="blur"/>
      <feComposite in="SourceGraphic"/>
    </filter>
  </defs>
  <g id="Grupo_18823" data-name="Grupo 18823" transform="translate(-137 -424.199)">
    <g transform="matrix(1, 0, 0, 1, 137, 424.2)" filter="url(#Rectángulo_35409)">
      <rect id="Rectángulo_35409-2" data-name="Rectángulo 35409" width="71.703" height="106.57" rx="10" transform="translate(9 6)" fill="#fff"/>
    </g>
    <g id="Grupo_18469" data-name="Grupo 18469" transform="translate(-6 -19.016)">
      <text id="Añadir" transform="translate(167 491.959)" fill="#83989a" font-size="11" font-family="Poppins-SemiBold, Poppins" font-weight="600" letter-spacing="0.063em"><tspan x="0" y="0">Añadir</tspan></text>
      <g id="Grupo_18322" data-name="Grupo 18322" transform="translate(13.25 -76.395)">
        <ellipse id="Elipse_950" data-name="Elipse 950" cx="13.5" cy="13" rx="13.5" ry="13" transform="translate(160.75 579.98)" fill="#fff"/>
        <g id="plus-circle" transform="translate(161.294 580.024)">
          <g id="Grupo_18080" data-name="Grupo 18080">
            <path id="Trazado_25902" data-name="Trazado 25902" d="M12.955,24.291A11.336,11.336,0,1,1,24.291,12.955,11.336,11.336,0,0,1,12.955,24.291Zm0,1.619A12.955,12.955,0,1,0,0,12.955,12.955,12.955,0,0,0,12.955,25.911Z" fill="#83989a"/>
            <path id="Trazado_25903" data-name="Trazado 25903" d="M18.478,12a.81.81,0,0,1,.81.81v4.858h4.858a.81.81,0,1,1,0,1.619H19.287v4.858a.81.81,0,1,1-1.619,0V19.287H12.81a.81.81,0,0,1,0-1.619h4.858V12.81A.81.81,0,0,1,18.478,12Z" transform="translate(-5.522 -5.522)" fill="#83989a"/>
          </g>
        </g>
      </g>
    </g>
  </g>
</svg>
