<svg xmlns="http://www.w3.org/2000/svg" width="26.315" height="25.263" viewBox="0 0 26.315 25.263">
  <g id="Grupo_17685" data-name="Grupo 17685" transform="translate(9891.648 8365.141)">
    <g id="Grupo_17684" data-name="Grupo 17684" transform="translate(-9891.648 -8365.141)">
      <g id="usuario_3_" data-name="usuario (3)" transform="translate(0 0)">
        <path id="Trazado_25374" data-name="Trazado 25374" d="M4.909,6.316a6.259,6.259,0,0,0,6.2,6.316,6.259,6.259,0,0,0,6.2-6.316A6.259,6.259,0,0,0,11.109,0a6.259,6.259,0,0,0-6.2,6.316Z" transform="translate(0.258 0)" fill="#83989a"/>
        <path id="Trazado_25375" data-name="Trazado 25375" d="M0,19.263c0,4.334,2.006,5.263,11.368,5.263s11.368-.929,11.368-5.263S20.729,14,11.368,14,0,14.929,0,19.263Z" transform="translate(0 0.737)" fill="#83989a"/>
        <path id="Trazado_25376" data-name="Trazado 25376" d="M23.621,7.308a1.02,1.02,0,0,1,1.461,0,1.066,1.066,0,0,1,0,1.489l-4.171,4.249a1.037,1.037,0,0,1-1.476,0l-1.461-1.489a1.066,1.066,0,0,1,0-1.489,1.02,1.02,0,0,1,1.461,0l.738.752Z" transform="translate(0.93 0.368)" fill="#83989a"/>
      </g>
      <path id="Trazado_25377" data-name="Trazado 25377" d="M-10910.662-5938.52s-.414-2.622,2.914-2.84" transform="translate(10912.623 5958.118)" fill="none" stroke="#fff" stroke-linecap="round" stroke-width="1"/>
    </g>
  </g>
</svg>
