<svg xmlns="http://www.w3.org/2000/svg" width="26.754" height="26.773" viewBox="0 0 26.754 26.773">
  <g id="Grupo_18196" data-name="Grupo 18196" transform="translate(-63 -766.589)">
    <path id="Trazado_25927" data-name="Trazado 25927" d="M9.526,5.961V7.745H26.47v3.531l-1.979,6.279H8.965L6.735,1.5H1.5V3.284H5.182L7.412,19.338H25.8l2.454-7.788V5.961Z" transform="translate(61.5 765.089)" fill="#546e6e"/>
    <path id="Trazado_25928" data-name="Trazado 25928" d="M14.159,34.532A3.567,3.567,0,1,0,17.727,38.1a3.571,3.571,0,0,0-3.567-3.567Zm0,5.351A1.784,1.784,0,1,1,15.943,38.1a1.784,1.784,0,0,1-1.784,1.784Z" transform="translate(57.814 751.695)" fill="#546e6e"/>
    <path id="Trazado_25929" data-name="Trazado 25929" d="M35.159,34.532A3.567,3.567,0,1,0,38.727,38.1a3.571,3.571,0,0,0-3.567-3.567Zm0,5.351A1.784,1.784,0,1,1,36.943,38.1,1.784,1.784,0,0,1,35.159,39.883Z" transform="translate(49.298 751.695)" fill="#546e6e"/>
  </g>
</svg>
