<svg xmlns="http://www.w3.org/2000/svg" xmlns:xlink="http://www.w3.org/1999/xlink" width="63" height="63" viewBox="0 0 63 63">
  <defs>
    <filter id="Elipse_1043" x="0" y="0" width="63" height="63" filterUnits="userSpaceOnUse">
      <feOffset dx="1" dy="3" input="SourceAlpha"/>
      <feGaussianBlur stdDeviation="1.5" result="blur"/>
      <feFlood flood-opacity="0.161"/>
      <feComposite operator="in" in2="blur"/>
      <feComposite in="SourceGraphic"/>
    </filter>
    <linearGradient id="linear-gradient" x1="0.13" y1="-0.043" x2="0.687" y2="0.973" gradientUnits="objectBoundingBox">
      <stop offset="0" stop-color="#83989a"/>
      <stop offset="1" stop-color="#546e6e"/>
    </linearGradient>
  </defs>
  <g id="Grupo_18745" data-name="Grupo 18745" transform="translate(-157.5 -822.5)">
    <g transform="matrix(1, 0, 0, 1, 157.5, 822.5)" filter="url(#Elipse_1043)">
      <circle id="Elipse_1043-2" data-name="Elipse 1043" cx="27" cy="27" r="27" transform="translate(3.5 1.5)" fill="#83989a"/>
    </g>
    <circle id="Elipse_1037" data-name="Elipse 1037" cx="25" cy="25" r="25" transform="translate(163 826)" fill="url(#linear-gradient)"/>
    <g id="chatbubbles-outline" transform="translate(175.104 838.103)">
      <path id="Trazado_28581" data-name="Trazado 28581" d="M30.417,21.4a1.136,1.136,0,0,1,.2-.756,2.088,2.088,0,0,1,.13-.192,10.045,10.045,0,0,0,1.711-5.6A10.548,10.548,0,0,0,21.692,4.5a10.7,10.7,0,0,0-10.56,8.241,9.965,9.965,0,0,0-.229,2.121,10.519,10.519,0,0,0,10.6,10.486,12.77,12.77,0,0,0,2.927-.477c.7-.192,1.4-.446,1.575-.515a1.639,1.639,0,0,1,.577-.105,1.612,1.612,0,0,1,.626.124l3.516,1.246a.838.838,0,0,0,.242.062.5.5,0,0,0,.5-.5.8.8,0,0,0-.031-.167Z" transform="translate(-6.668 -4.5)" fill="none" stroke="#fff" stroke-linecap="round" stroke-width="1.5"/>
      <path id="Trazado_28582" data-name="Trazado 28582" d="M5.645,21.75a9.067,9.067,0,0,0,.4,9.467c.143.216.224.384.2.5s-.74,3.836-.74,3.836a.5.5,0,0,0,.168.476.507.507,0,0,0,.32.11.45.45,0,0,0,.18-.037l3.485-1.364a.974.974,0,0,1,.744.012,10.5,10.5,0,0,0,3.772.744,9.872,9.872,0,0,0,4.964-1.333" transform="translate(-4.5 -10.341)" fill="none" stroke="#fff" stroke-linecap="round" stroke-width="1.5"/>
    </g>
  </g>
</svg>
