<svg id="capsulas" xmlns="http://www.w3.org/2000/svg" width="24.546" height="25.263" viewBox="0 0 24.546 25.263">
  <g id="Grupo_17626" data-name="Grupo 17626" transform="translate(0 0)">
    <g id="XMLID_1_" transform="translate(0 0)">
      <path id="Trazado_25351" data-name="Trazado 25351" d="M695.14,24.832l2.286,5.495-6.049,2.516A5.157,5.157,0,0,0,686.3,26.6a4.6,4.6,0,0,1,8.84-1.77Z" transform="translate(-675.733 -22)" fill="#83989a"/>
      <path id="Trazado_25352" data-name="Trazado 25352" d="M912.472,565a4.6,4.6,0,1,1-8.487,3.531l-1.585-3.812,1-1.812a5.151,5.151,0,0,0,.326-.712l6.462-2.689Zm-2.959,4.852a.278.278,0,0,0-.214-.513,2.793,2.793,0,0,1-3.646-1.5l-.961-2.307a.278.278,0,0,0-.513.214l.961,2.307a3.345,3.345,0,0,0,4.373,1.8Z" transform="translate(-888.279 -550.66)" fill="#83989a"/>
      <path id="Trazado_25353" data-name="Trazado 25353" d="M47.235,826.8l8.051,4.436-2.87,5.212a4.6,4.6,0,1,1-8.052-4.434Zm-.082,10.25a.278.278,0,0,0-.109-.377,2.791,2.791,0,0,1-1.1-3.788l1.206-2.189a.277.277,0,1,0-.485-.268l-1.206,2.189a3.348,3.348,0,0,0,1.316,4.543.282.282,0,0,0,.133.035A.277.277,0,0,0,47.153,837.05Z" transform="translate(-43.794 -813.563)" fill="#83989a"/>
      <path id="Trazado_25354" data-name="Trazado 25354" d="M277.351,347.628l-8.051-4.436,2.872-5.214a4.6,4.6,0,0,1,3.73-2.368c.1-.007.2-.01.3-.01a4.6,4.6,0,0,1,4.018,6.814Z" transform="translate(-265.591 -330.442)" fill="#83989a"/>
    </g>
  </g>
</svg>
