<svg xmlns="http://www.w3.org/2000/svg" width="25.784" height="19.512" viewBox="0 0 25.784 19.512">
  <g id="Grupo_13698" data-name="Grupo 13698" opacity="0.85">
    <g id="Grupo_9485" data-name="Grupo 9485" transform="translate(0 3.154)">
      <path id="Trazado_12686" data-name="Trazado 12686" d="M5602.226-128.778a4.118,4.118,0,0,1-4.112,4.113,4.118,4.118,0,0,1-4.113-4.113,4.118,4.118,0,0,1,4.113-4.112A4.117,4.117,0,0,1,5602.226-128.778Z" transform="translate(-5585.223 136.494)" fill="#666"/>
      <path id="Trazado_12687" data-name="Trazado 12687" d="M5571.194-151.782h-20.632a2.574,2.574,0,0,0-2.575,2.576V-138a2.575,2.575,0,0,0,2.575,2.576h20.632a2.576,2.576,0,0,0,2.577-2.576v-11.207A2.576,2.576,0,0,0,5571.194-151.782Zm-10.315,13.215a5.5,5.5,0,0,1-5.5-5.5,5.5,5.5,0,0,1,5.5-5.5,5.5,5.5,0,0,1,5.5,5.5A5.5,5.5,0,0,1,5560.878-138.567Z" transform="translate(-5547.986 151.782)" fill="#666"/>
    </g>
    <g id="Grupo_9486" data-name="Grupo 9486" transform="translate(5.984 0)">
      <path id="Trazado_12688" data-name="Trazado 12688" d="M5593.164-164.48h-13.815l1.587-2.787a2.076,2.076,0,0,1,1.8-1.048h7.036a2.075,2.075,0,0,1,1.8,1.048Z" transform="translate(-5579.349 168.316)" fill="#666"/>
    </g>
  </g>
</svg>
