<svg xmlns="http://www.w3.org/2000/svg" width="17.706" height="17.497" viewBox="0 0 17.706 17.497">
  <g id="Grupo_13312" data-name="Grupo 13312" transform="translate(-294.287 -1025.419)">
    <path id="Trazado_21088" data-name="Trazado 21088" d="M311.508,1043.039H294.771a.235.235,0,0,1-.234-.235v-14.74a.235.235,0,0,1,.234-.235h16.737a.234.234,0,0,1,.234.235v14.74A.234.234,0,0,1,311.508,1043.039Zm-16.5-.469h16.267V1028.3H295.006Z" transform="translate(0 -0.373)" fill="#7d999a" stroke="#7d999a" stroke-width="0.5"/>
    <path id="Trazado_21089" data-name="Trazado 21089" d="M310.01,1029.186a.234.234,0,0,1-.234-.234V1025.9a.235.235,0,1,1,.469,0v3.048A.235.235,0,0,1,310.01,1029.186Z" transform="translate(-2.632)" fill="#7d999a" stroke="#7d999a" stroke-width="0.5"/>
    <path id="Trazado_21090" data-name="Trazado 21090" d="M299.619,1029.186a.234.234,0,0,1-.234-.234V1025.9a.234.234,0,1,1,.468,0v3.048A.234.234,0,0,1,299.619,1029.186Z" transform="translate(-0.837)" fill="#7d999a" stroke="#7d999a" stroke-width="0.5"/>
    <g id="Grupo_13311" data-name="Grupo 13311" transform="translate(298.995 1033.168)">
      <path id="Trazado_21091" data-name="Trazado 21091" d="M299.925,1039.866v-.333c.107-.093.265-.23.476-.41s.371-.32.482-.417.256-.228.434-.393.317-.3.417-.409.21-.238.333-.389a2.59,2.59,0,0,0,.28-.406,1.886,1.886,0,0,0,.223-.857,1.072,1.072,0,0,0-.25-.716.986.986,0,0,0-.792-.294,1.047,1.047,0,0,0-.83.326,1.355,1.355,0,0,0-.316.854h-.458a1.674,1.674,0,0,1,.466-1.18,1.533,1.533,0,0,1,1.114-.417,1.579,1.579,0,0,1,1.107.386,1.394,1.394,0,0,1,.424,1.086,1.782,1.782,0,0,1-.125.635,3,3,0,0,1-.285.577,4.444,4.444,0,0,1-.458.569c-.2.215-.36.38-.482.493s-.3.273-.539.479-.386.339-.451.4H303.2v.416Z" transform="translate(-299.925 -1034.749)" fill="#7d999a" stroke="#7d999a" stroke-width="0.5"/>
      <path id="Trazado_21092" data-name="Trazado 21092" d="M305.94,1035.062a1.831,1.831,0,0,1,1.119-.329,1.531,1.531,0,0,1,1.073.364,1.2,1.2,0,0,1,.4.927,1.159,1.159,0,0,1-.233.708,1.18,1.18,0,0,1-.621.43v.035a1.163,1.163,0,0,1,.694.466,1.562,1.562,0,0,1,.25.923,1.29,1.29,0,0,1-.41.965,1.563,1.563,0,0,1-1.135.4,1.841,1.841,0,0,1-1.184-.365,1.43,1.43,0,0,1-.528-1.017h.451a1.028,1.028,0,0,0,.379.691,1.312,1.312,0,0,0,.868.274,1.125,1.125,0,0,0,.827-.285,1,1,0,0,0,.288-.743.946.946,0,0,0-.386-.857,2.116,2.116,0,0,0-1.156-.254h-.153v-.409h.16q1.437-.007,1.437-.909a.871.871,0,0,0-.27-.673,1.088,1.088,0,0,0-.767-.251,1.336,1.336,0,0,0-.792.212.882.882,0,0,0-.357.608h-.466A1.269,1.269,0,0,1,305.94,1035.062Z" transform="translate(-300.864 -1034.733)" fill="#7d999a" stroke="#7d999a" stroke-width="0.5"/>
    </g>
    <path id="Trazado_21093" data-name="Trazado 21093" d="M311.544,1031.1H294.977a.234.234,0,0,1,0-.469h16.567a.234.234,0,0,1,0,.469Z" transform="translate(-0.036 -0.857)" fill="#7d999a" stroke="#7d999a" stroke-width="0.5"/>
  </g>
</svg>
