<svg id="Grupo_15617" data-name="Grupo 15617" xmlns="http://www.w3.org/2000/svg" xmlns:xlink="http://www.w3.org/1999/xlink" width="310" height="306.762" viewBox="0 0 310 306.762">
  <defs>
    <clipPath id="clip-path">
      <rect id="Rect치ngulo_32721" data-name="Rect치ngulo 32721" width="310" height="306.762" fill="none"/>
    </clipPath>
  </defs>
  <g id="Grupo_13696" data-name="Grupo 13696">
    <g id="Grupo_13695" data-name="Grupo 13695" clip-path="url(#clip-path)">
      <path id="Trazado_21480" data-name="Trazado 21480" d="M286.71,265.9H23.094A22.976,22.976,0,0,1,.117,242.921V22.977A22.976,22.976,0,0,1,23.094,0H286.71a22.976,22.976,0,0,1,22.977,22.977V242.921A22.976,22.976,0,0,1,286.71,265.9" transform="translate(0.098)" fill="#83989a"/>
      <path id="Trazado_21481" data-name="Trazado 21481" d="M286.71,261.281H23.094A22.976,22.976,0,0,1,.117,238.3V51.853A22.976,22.976,0,0,1,23.094,28.876H286.71a22.976,22.976,0,0,1,22.977,22.977V238.3a22.976,22.976,0,0,1-22.977,22.977" transform="translate(0.098 24.157)" fill="#fff"/>
      <rect id="Rect치ngulo_32720" data-name="Rect치ngulo 32720" width="309.57" height="232.405" rx="12.511" transform="translate(0.215 53.032)" fill="none" stroke="#83989a" stroke-width="0.234"/>
      <circle id="Elipse_666" data-name="Elipse 666" cx="15.5" cy="15.5" r="15.5" transform="translate(97.5 193.425)" fill="#83989a"/>
    </g>
  </g>
  <text id="_28" data-name="28" transform="translate(21.684 86.64)" fill="#485a72" font-size="13" font-family="Poppins-Regular, Poppins" opacity="0.4"><tspan x="0" y="0">28</tspan></text>
  <text id="_4" data-name="4" transform="translate(29.416 129.988)" fill="#485a72" font-size="14" font-family="Poppins-Regular, Poppins"><tspan x="0" y="0">4</tspan></text>
  <text id="_11" data-name="11" transform="translate(29.269 172.335)" fill="#485a72" font-size="14" font-family="Poppins-Regular, Poppins"><tspan x="0" y="0">11</tspan></text>
  <text id="_18" data-name="18" transform="translate(25.101 213.682)" fill="#485a72" font-size="13" font-family="Poppins-Regular, Poppins"><tspan x="0" y="0">18</tspan></text>
  <text id="_25" data-name="25" transform="translate(21.724 256.03)" fill="#485a72" font-size="13" font-family="Poppins-Regular, Poppins"><tspan x="0" y="0">25</tspan></text>
  <text id="_29" data-name="29" transform="translate(63.388 86.626)" fill="#485a72" font-size="13" font-family="Poppins-Regular, Poppins" opacity="0.4"><tspan x="0" y="0">29</tspan></text>
  <text id="_5" data-name="5" transform="translate(71.12 129.974)" fill="#485a72" font-size="14" font-family="Poppins-Regular, Poppins"><tspan x="0" y="0">5</tspan></text>
  <text id="_12" data-name="12" transform="translate(67.542 171.322)" fill="#485a72" font-size="13" font-family="Poppins-Regular, Poppins"><tspan x="0" y="0">12</tspan></text>
  <text id="_19" data-name="19" transform="translate(66.805 213.669)" fill="#485a72" font-size="13" font-family="Poppins-Regular, Poppins"><tspan x="0" y="0">19</tspan></text>
  <text id="_26" data-name="26" transform="translate(63.32 256.016)" fill="#485a72" font-size="13" font-family="Poppins-Regular, Poppins"><tspan x="0" y="0">26</tspan></text>
  <text id="_30" data-name="30" transform="translate(104.918 86.613)" fill="#485a72" font-size="13" font-family="Poppins-Regular, Poppins" opacity="0.4"><tspan x="0" y="0">30</tspan></text>
  <text id="_6" data-name="6" transform="translate(112.717 129.961)" fill="#485a72" font-size="14" font-family="Poppins-Regular, Poppins"><tspan x="0" y="0">6</tspan></text>
  <text id="_13" data-name="13" transform="translate(109.045 171.308)" fill="#485a72" font-size="13" font-family="Poppins-Regular, Poppins"><tspan x="0" y="0">13</tspan></text>
  <text id="_20" data-name="20" transform="translate(105.105 213.655)" fill="#fff" font-size="13" font-family="Poppins-Regular, Poppins"><tspan x="0" y="0">20</tspan></text>
  <text id="_27" data-name="27" transform="translate(106.204 255.003)" fill="#485a72" font-size="12" font-family="Poppins-Regular, Poppins"><tspan x="0" y="0">27</tspan></text>
  <text id="_31" data-name="31" transform="translate(150.736 86.6)" fill="#485a72" font-size="13" font-family="Poppins-Regular, Poppins" opacity="0.4"><tspan x="0" y="0">31</tspan></text>
  <text id="_7" data-name="7" transform="translate(155.601 128.947)" fill="#485a72" font-size="13" font-family="Poppins-Regular, Poppins"><tspan x="0" y="0">7</tspan></text>
  <text id="_14" data-name="14" transform="translate(150.2 171.295)" fill="#485a72" font-size="13" font-family="Poppins-Regular, Poppins"><tspan x="0" y="0">14</tspan></text>
  <text id="_21" data-name="21" transform="translate(150.923 213.642)" fill="#485a72" font-size="13" font-family="Poppins-Regular, Poppins"><tspan x="0" y="0">21</tspan></text>
  <text id="_28-2" data-name="28" transform="translate(146.756 255.989)" fill="#485a72" font-size="13" font-family="Poppins-Regular, Poppins"><tspan x="0" y="0">28</tspan></text>
  <text id="_1" data-name="1" transform="translate(200.321 83.586)" fill="#485a72" font-size="10" font-family="Poppins-Regular, Poppins"><tspan x="0" y="0">1</tspan></text>
  <text id="_8" data-name="8" transform="translate(196.152 129.934)" fill="#485a72" font-size="14" font-family="Poppins-Regular, Poppins"><tspan x="0" y="0">8</tspan></text>
  <text id="_15" data-name="15" transform="translate(191.904 171.281)" fill="#485a72" font-size="13" font-family="Poppins-Regular, Poppins"><tspan x="0" y="0">15</tspan></text>
  <text id="_22" data-name="22" transform="translate(189.197 212.63)" fill="#485a72" font-size="12" font-family="Poppins-Regular, Poppins"><tspan x="0" y="0">22</tspan></text>
  <text id="_29-2" data-name="29" transform="translate(188.46 255.976)" fill="#485a72" font-size="13" font-family="Poppins-Regular, Poppins"><tspan x="0" y="0">29</tspan></text>
  <text id="_2" data-name="2" transform="translate(238.593 86.574)" fill="#485a72" font-size="13" font-family="Poppins-Regular, Poppins"><tspan x="0" y="0">2</tspan></text>
  <text id="_9" data-name="9" transform="translate(237.857 129.92)" fill="#485a72" font-size="14" font-family="Poppins-Regular, Poppins"><tspan x="0" y="0">9</tspan></text>
  <text id="_16" data-name="16" transform="translate(233.501 171.268)" fill="#485a72" font-size="13" font-family="Poppins-Regular, Poppins"><tspan x="0" y="0">16</tspan></text>
  <text id="_23" data-name="23" transform="translate(230.701 212.615)" fill="#485a72" font-size="12" font-family="Poppins-Regular, Poppins"><tspan x="0" y="0">23</tspan></text>
  <text id="_30-2" data-name="30" transform="translate(229.991 255.962)" fill="#485a72" font-size="13" font-family="Poppins-Regular, Poppins"><tspan x="0" y="0">30</tspan></text>
  <text id="_3" data-name="3" transform="translate(280.096 85.56)" fill="#485a72" font-size="12" font-family="Poppins-Regular, Poppins"><tspan x="0" y="0">3</tspan></text>
  <text id="_11-2" data-name="11" transform="translate(279.413 129.907)" fill="#485a72" font-size="14" font-family="Poppins-Regular, Poppins"><tspan x="0" y="0">11</tspan></text>
  <text id="_17" data-name="17" transform="translate(276.384 171.254)" fill="#485a72" font-size="13" font-family="Poppins-Regular, Poppins"><tspan x="0" y="0">17</tspan></text>
  <text id="_24" data-name="24" transform="translate(271.855 213.603)" fill="#485a72" font-size="13" font-family="Poppins-Regular, Poppins"><tspan x="0" y="0">24</tspan></text>
  <text id="_1-2" data-name="1" transform="translate(283.702 252.95)" fill="#485a72" font-size="10" font-family="Poppins-Regular, Poppins"><tspan x="0" y="0">1</tspan></text>
  <text id="Lu" transform="translate(22.2 30.756)" fill="#fff" font-size="9" font-family="Poppins-SemiBold, Poppins" font-weight="600"><tspan x="0" y="0">Lu</tspan></text>
  <text id="Ma" transform="translate(67.228 30.756)" fill="#fff" font-size="9" font-family="Poppins-SemiBold, Poppins" font-weight="600"><tspan x="0" y="0">Ma</tspan></text>
  <text id="Mi" transform="translate(104.595 30.756)" fill="#fff" font-size="9" font-family="Poppins-SemiBold, Poppins" font-weight="600"><tspan x="0" y="0">Mi</tspan></text>
  <text id="Ju" transform="translate(150.613 30.756)" fill="#fff" font-size="9" font-family="Poppins-SemiBold, Poppins" font-weight="600"><tspan x="0" y="0">Ju</tspan></text>
  <text id="Vi" transform="translate(195.474 30.756)" fill="#fff" font-size="9" font-family="Poppins-SemiBold, Poppins" font-weight="600"><tspan x="0" y="0">Vi</tspan></text>
  <text id="Sa" transform="translate(233.142 30.85)" fill="#fff" font-size="9" font-family="Poppins-SemiBold, Poppins" font-weight="600"><tspan x="0" y="0">Sa</tspan></text>
  <text id="Do" transform="translate(275.211 30.756)" fill="#fff" font-size="9" font-family="Poppins-SemiBold, Poppins" font-weight="600"><tspan x="0" y="0">Do</tspan></text>
</svg>
