<svg id="Grupo_17598" data-name="Grupo 17598" xmlns="http://www.w3.org/2000/svg" xmlns:xlink="http://www.w3.org/1999/xlink" width="35.756" height="28.914" viewBox="0 0 35.756 28.914">
  <defs>
    <clipPath id="clip-path">
      <rect id="Rectángulo_33953" data-name="Rectángulo 33953" width="35.756" height="28.914" fill="none"/>
    </clipPath>
  </defs>
  <g id="Grupo_17597" data-name="Grupo 17597" clip-path="url(#clip-path)">
    <path id="Trazado_25221" data-name="Trazado 25221" d="M30.8,14.146a2.481,2.481,0,0,0,.139-.813V9.012a4.6,4.6,0,0,0-4.6-4.6,3.791,3.791,0,0,1-1.69-.35l-.009-.005a1.179,1.179,0,0,1-.592-.6,1.625,1.625,0,0,0-.11-.217,5.655,5.655,0,0,1-.313-.6C22.867.961,20.979,0,18.442,0H12.493C9.955,0,8.068.961,7.314,2.634a5.653,5.653,0,0,1-.313.6,2.538,2.538,0,0,1-.794.873l0,0a2.559,2.559,0,0,1-1.4.3A4.8,4.8,0,0,0,0,9.208v9.381A5.219,5.219,0,0,0,5.213,23.8H20.168A2.5,2.5,0,0,0,20.9,23.7a7.624,7.624,0,1,0,9.9-9.549M21.025,21.29V21.3a.86.86,0,0,1-.857.866H5.213a3.575,3.575,0,0,1-3.575-3.575V9.208A3.159,3.159,0,0,1,4.8,6.05,4.155,4.155,0,0,0,7.066,5.5h0A4.113,4.113,0,0,0,8.4,4.085a7.258,7.258,0,0,0,.4-.778c.559-1.241,2.217-1.668,3.685-1.668h5.949c1.469,0,3.126.427,3.685,1.668a7.258,7.258,0,0,0,.4.778A2.834,2.834,0,0,0,23.868,5.5h0a5.4,5.4,0,0,0,2.466.545A2.961,2.961,0,0,1,29.3,9.012v4.322a.856.856,0,0,1-.887.857q-.139-.005-.279-.005a7.1,7.1,0,0,0-7.105,7.105m7.105,5.987a5.987,5.987,0,1,1,5.987-5.987,5.987,5.987,0,0,1-5.987,5.987" transform="translate(0 -0.001)" fill="#83989a"/>
    <path id="Trazado_25222" data-name="Trazado 25222" d="M773.379,618.2a5.689,5.689,0,1,0,1.222,1.813,5.685,5.685,0,0,0-1.222-1.813m-4.033,8.389a4.356,4.356,0,1,1,4.356-4.356,4.36,4.36,0,0,1-4.356,4.356" transform="translate(-753.879 -608.651)" fill="#83989a"/>
    <text id="_" data-name="+" transform="translate(24.878 13.285)" fill="#83989a" font-size="11" font-family="Poppins-SemiBold, Poppins" font-weight="600"><tspan x="0" y="12">+</tspan></text>
  </g>
</svg>
