<svg xmlns="http://www.w3.org/2000/svg" xmlns:xlink="http://www.w3.org/1999/xlink" width="60" height="60" viewBox="0 0 60 60">
  <defs>
    <filter id="Elipse_905" x="0" y="0" width="60" height="60" filterUnits="userSpaceOnUse">
      <feOffset dy="3" input="SourceAlpha"/>
      <feGaussianBlur stdDeviation="3" result="blur"/>
      <feFlood flood-opacity="0.161"/>
      <feComposite operator="in" in2="blur"/>
      <feComposite in="SourceGraphic"/>
    </filter>
  </defs>
  <g id="Grupo_18822" data-name="Grupo 18822" transform="translate(-49 -239.777)">
    <g transform="matrix(1, 0, 0, 1, 49, 239.78)" filter="url(#Elipse_905)">
      <circle id="Elipse_905-2" data-name="Elipse 905" cx="21" cy="21" r="21" transform="translate(9 6)" fill="#fff"/>
    </g>
    <g id="camera" transform="translate(66.913 251.146)">
      <g id="Grupo_18247" data-name="Grupo 18247" transform="translate(0 6)">
        <path id="Trazado_26071" data-name="Trazado 26071" d="M22.664,21.109a1.511,1.511,0,0,1-1.511,1.511H3.022a1.511,1.511,0,0,1-1.511-1.511V12.044a1.511,1.511,0,0,1,1.511-1.511H4.793A4.533,4.533,0,0,0,8,9.2L9.25,7.954a1.511,1.511,0,0,1,1.065-.443h3.542a1.511,1.511,0,0,1,1.068.442L16.176,9.2a4.533,4.533,0,0,0,3.206,1.328h1.771a1.511,1.511,0,0,1,1.511,1.511ZM3.022,9.022A3.022,3.022,0,0,0,0,12.044v9.065a3.022,3.022,0,0,0,3.022,3.022H21.153a3.022,3.022,0,0,0,3.022-3.022V12.044a3.022,3.022,0,0,0-3.022-3.022H19.382a3.021,3.021,0,0,1-2.136-.885L15.994,6.885A3.022,3.022,0,0,0,13.858,6H10.316a3.021,3.021,0,0,0-2.136.885L6.929,8.136a3.022,3.022,0,0,1-2.136.885Z" transform="translate(0 -6)" fill="#8f8f8f"/>
        <path id="Trazado_26072" data-name="Trazado 26072" d="M15.065,24.065a3.777,3.777,0,1,1,3.777-3.777A3.777,3.777,0,0,1,15.065,24.065Zm0,1.511a5.288,5.288,0,1,0-5.288-5.288,5.288,5.288,0,0,0,5.288,5.288Zm-7.555-8.31a.755.755,0,1,1-.755-.755A.755.755,0,0,1,7.511,17.266Z" transform="translate(-2.978 -10.467)" fill="#8f8f8f"/>
      </g>
    </g>
  </g>
</svg>
