<svg xmlns="http://www.w3.org/2000/svg" width="21.021" height="16.516" viewBox="0 0 21.021 16.516">
  <g id="camera" opacity="0.7">
    <path id="Trazado_797" data-name="Trazado 797" d="M23.27,22.516H3.751A.751.751,0,0,1,3,21.766V9a.751.751,0,0,1,.751-.751H8.6L9.884,6.338A.751.751,0,0,1,10.507,6h6.006a.751.751,0,0,1,.623.338L18.42,8.252h4.85A.751.751,0,0,1,24.021,9V21.766A.751.751,0,0,1,23.27,22.516ZM4.5,21.015H22.519V9.754h-4.5a.751.751,0,0,1-.623-.338L16.108,7.5h-5.2L9.629,9.416a.751.751,0,0,1-.623.338H4.5Z" transform="translate(-3 -6)" fill="#83989a"/>
    <path id="Trazado_798" data-name="Trazado 798" d="M19.5,24.009a4.5,4.5,0,1,1,4.5-4.5A4.5,4.5,0,0,1,19.5,24.009Zm0-7.507a3,3,0,1,0,3,3A3,3,0,0,0,19.5,16.5Z" transform="translate(-8.994 -10.496)" fill="#83989a"/>
  </g>
</svg>
