<svg xmlns="http://www.w3.org/2000/svg" width="127.158" height="96.229" viewBox="0 0 127.158 96.229">
  <g id="Grupo_13592" data-name="Grupo 13592" opacity="0.2">
    <g id="Grupo_9485" data-name="Grupo 9485" transform="translate(0 15.556)">
      <path id="Trazado_12686" data-name="Trazado 12686" d="M5634.562-112.612a20.305,20.305,0,0,1-20.273,20.284A20.311,20.311,0,0,1,5594-112.612a20.309,20.309,0,0,1,20.287-20.278A20.3,20.3,0,0,1,5634.562-112.612Z" transform="translate(-5550.709 150.665)" fill="#ababab"/>
      <path id="Trazado_12687" data-name="Trazado 12687" d="M5662.439-151.782H5560.686a12.7,12.7,0,0,0-12.7,12.7v55.268a12.7,12.7,0,0,0,12.7,12.7h101.754a12.7,12.7,0,0,0,12.705-12.7V-139.08A12.7,12.7,0,0,0,5662.439-151.782Zm-50.873,65.173a27.149,27.149,0,0,1-27.121-27.121,27.147,27.147,0,0,1,27.121-27.114,27.139,27.139,0,0,1,27.109,27.114A27.141,27.141,0,0,1,5611.566-86.609Z" transform="translate(-5547.986 151.782)" fill="#ababab"/>
    </g>
    <g id="Grupo_9486" data-name="Grupo 9486" transform="translate(29.509 0)">
      <path id="Trazado_12688" data-name="Trazado 12688" d="M5647.483-149.4h-68.135l7.824-13.745a10.246,10.246,0,0,1,8.895-5.17h34.7a10.236,10.236,0,0,1,8.893,5.17Z" transform="translate(-5579.349 168.316)" fill="#ababab"/>
    </g>
  </g>
</svg>
