<svg xmlns="http://www.w3.org/2000/svg" width="21.266" height="21.282" viewBox="0 0 21.266 21.282">
  <g id="Grupo_18154" data-name="Grupo 18154" transform="translate(-63 -766.589)">
    <path id="Trazado_25927" data-name="Trazado 25927" d="M7.88,5.046V6.464H21.349V9.27l-1.573,4.991H7.434L5.662,1.5H1.5V2.918H4.427L6.2,15.679H20.816l1.951-6.191V5.046Z" transform="translate(61.5 765.089)" fill="#8f8f8f"/>
    <path id="Trazado_25928" data-name="Trazado 25928" d="M13.428,34.532a2.836,2.836,0,1,0,2.836,2.836,2.839,2.839,0,0,0-2.836-2.836Zm0,4.253a1.418,1.418,0,1,1,1.418-1.418,1.418,1.418,0,0,1-1.418,1.418Z" transform="translate(56.705 747.667)" fill="#8f8f8f"/>
    <path id="Trazado_25929" data-name="Trazado 25929" d="M34.428,34.532a2.836,2.836,0,1,0,2.836,2.836,2.839,2.839,0,0,0-2.836-2.836Zm0,4.253a1.418,1.418,0,1,1,1.418-1.418A1.418,1.418,0,0,1,34.428,38.786Z" transform="translate(45.629 747.667)" fill="#8f8f8f"/>
  </g>
</svg>
