<svg xmlns="http://www.w3.org/2000/svg" width="25.419" height="28.459" viewBox="0 0 25.419 28.459">
  <g id="Componente_18_73" data-name="Componente 18 – 73" transform="translate(0.75 0.75)">
    <g id="Grupo_70" data-name="Grupo 70">
      <path id="Trazado_81" data-name="Trazado 81" d="M88.063,497.512h0a1.6,1.6,0,0,0-2.056.8,1.506,1.506,0,0,0,.834,1.987,8.5,8.5,0,0,1,5.388,7.849,8.83,8.83,0,0,1-17.65,0A8.5,8.5,0,0,1,79.97,500.3a1.506,1.506,0,0,0,.831-1.987,1.6,1.6,0,0,0-2.058-.8,11.534,11.534,0,0,0-7.3,10.64,11.967,11.967,0,0,0,23.919,0A11.531,11.531,0,0,0,88.063,497.512Z" transform="translate(-71.442 -492.741)" fill="#546e6e" stroke="#fff" stroke-width="1.5"/>
      <path id="Trazado_82" data-name="Trazado 82" d="M85.856,505.009a1.891,1.891,0,0,0,1.889-1.891v-8.489a1.889,1.889,0,0,0-3.778,0v8.489A1.891,1.891,0,0,0,85.856,505.009Z" transform="translate(-73.895 -492.741)" fill="#546e6e" stroke="#fff" stroke-width="1.5"/>
    </g>
  </g>
</svg>
