<svg xmlns="http://www.w3.org/2000/svg" width="16" height="16" viewBox="0 0 16 16">
  <path id="close" d="M-1845.9,15.682l0,0-6.1-6.193-6.091,6.188h0a1.11,1.11,0,0,1-.781.32A1.134,1.134,0,0,1-1860,14.857a1.148,1.148,0,0,1,.316-.793h0L-1853.714,8l-5.895-5.988a1.149,1.149,0,0,1-.392-.866A1.135,1.135,0,0,1-1858.875,0a1.108,1.108,0,0,1,.778.318l0,0,6.1,6.193,6.091-6.188h0a1.11,1.11,0,0,1,.78-.32A1.135,1.135,0,0,1-1844,1.143a1.148,1.148,0,0,1-.316.793h0L-1850.287,8l5.894,5.988a1.149,1.149,0,0,1,.392.866A1.135,1.135,0,0,1-1845.126,16,1.108,1.108,0,0,1-1845.9,15.682Z" transform="translate(1860)" fill="#fff"/>
</svg>
