<svg xmlns="http://www.w3.org/2000/svg" width="24.296" height="28.345" viewBox="0 0 24.296 28.345">
  <g id="lock" transform="translate(0)">
    <g id="Grupo_18135" data-name="Grupo 18135" transform="translate(0 0)">
      <path id="Trazado_25926" data-name="Trazado 25926" d="M26.246,15.148A4.049,4.049,0,0,1,30.3,19.2v8.1a4.049,4.049,0,0,1-4.049,4.049h-16.2A4.049,4.049,0,0,1,6,27.3V19.2a4.049,4.049,0,0,1,4.049-4.049V11.1a8.1,8.1,0,0,1,16.2,0ZM18.148,5.7a5.4,5.4,0,0,1,5.4,5.4v4.049h-10.8V11.1A5.4,5.4,0,0,1,18.148,5.7Zm8.1,12.148h-16.2A1.35,1.35,0,0,0,8.7,19.2v8.1a1.35,1.35,0,0,0,1.35,1.35h16.2A1.35,1.35,0,0,0,27.6,27.3V19.2A1.35,1.35,0,0,0,26.246,17.847Z" transform="translate(-6 -3)" fill="#83989a" fill-rule="evenodd"/>
    </g>
  </g>
</svg>
