<svg xmlns="http://www.w3.org/2000/svg" width="29" height="29" viewBox="0 0 29 29">
  <g id="Grupo_18636" data-name="Grupo 18636" transform="translate(-295.746 -186)">
    <g id="Elipse_780" data-name="Elipse 780" transform="translate(295.746 186)" fill="#fff" stroke="#83989a" stroke-width="1.5">
      <circle cx="14.5" cy="14.5" r="14.5" stroke="none"/>
      <circle cx="14.5" cy="14.5" r="13.75" fill="none"/>
    </g>
    <g id="Grupo_17599" data-name="Grupo 17599" transform="translate(299.492 190.686)">
      <g id="icons_share" data-name="icons/share" transform="translate(0.252 0.315)">
        <rect id="bg" width="20" height="20" fill="none"/>
        <path id="path" d="M10.763,11.856a1.849,1.849,0,0,1,.069.611,3.68,3.68,0,0,1-.069.611l3.659,2.681a2.427,2.427,0,0,1,1.588-.611,2.376,2.376,0,1,1-2.416,2.376,3.68,3.68,0,0,1,.069-.611L10,14.232a2.376,2.376,0,1,1,0-3.53l3.659-2.681a4.563,4.563,0,0,1-.069-.645,2.447,2.447,0,1,1,.828,1.765l-3.659,2.715ZM16.01,8.394a1.018,1.018,0,1,0-1.035-1.018A1.009,1.009,0,0,0,16.01,8.394Zm0,10.182a1.018,1.018,0,1,0-1.035-1.018,1.009,1.009,0,0,0,1.035,1.018ZM8.416,13.485a1.018,1.018,0,1,0-1.035-1.018,1.009,1.009,0,0,0,1.035,1.018Z" transform="translate(-2.18 -2.708)" fill="#83989a"/>
      </g>
    </g>
  </g>
</svg>
