<svg xmlns="http://www.w3.org/2000/svg" width="26.487" height="26.487" viewBox="0 0 26.487 26.487">
  <g id="Grupo_17477" data-name="Grupo 17477" transform="translate(-9.891 -38.249)">
    <path id="Sustracción_7" data-name="Sustracción 7" d="M0,13.245A13.244,13.244,0,1,0,13.243,0,13.243,13.243,0,0,0,0,13.245Z" transform="translate(9.891 38.249)" fill="#666"/>
    <g id="Grupo_17478" data-name="Grupo 17478" transform="translate(-51.887 -611.507)">
      <g id="icons_share" data-name="icons/share" transform="translate(63 652)">
        <rect id="bg" width="22" height="22" fill="none"/>
        <path id="path" d="M11.335,12.678a2.071,2.071,0,0,1,.077.684,4.122,4.122,0,0,1-.077.684l4.1,3a2.718,2.718,0,0,1,1.778-.684A2.661,2.661,0,1,1,14.5,19.027a4.121,4.121,0,0,1,.077-.684l-4.1-3a2.661,2.661,0,1,1,0-3.953l4.1-3a5.11,5.11,0,0,1-.077-.722,2.741,2.741,0,1,1,.928,1.977l-4.1,3.041ZM17.211,8.8a1.141,1.141,0,1,0-1.16-1.14,1.13,1.13,0,0,0,1.16,1.14Zm0,11.4a1.141,1.141,0,1,0-1.16-1.14,1.13,1.13,0,0,0,1.16,1.14Zm-8.5-5.7a1.141,1.141,0,1,0-1.16-1.14,1.13,1.13,0,0,0,1.16,1.14Z" transform="translate(-1.723 -2.434)" fill="#fff"/>
      </g>
    </g>
  </g>
</svg>
