<svg id="Grupo_18167" data-name="Grupo 18167" xmlns="http://www.w3.org/2000/svg" xmlns:xlink="http://www.w3.org/1999/xlink" width="147.521" height="124.516" viewBox="0 0 147.521 124.516">
  <defs>
    <clipPath id="clip-path">
      <rect id="Rectángulo_34666" data-name="Rectángulo 34666" width="147.521" height="124.516" fill="none"/>
    </clipPath>
  </defs>
  <g id="Grupo_18166" data-name="Grupo 18166" clip-path="url(#clip-path)">
    <path id="Trazado_26058" data-name="Trazado 26058" d="M156.52,37.232a39.632,39.632,0,0,0-72.591-19.5A39.63,39.63,0,1,0,24.6,69.275h-.011l59.338,55.24,59.333-55.24A39.563,39.563,0,0,0,156.52,37.232" transform="translate(-9.07 0)" fill="#83989a"/>
    <path id="Trazado_26059" data-name="Trazado 26059" d="M45.049,257.641a12.587,12.587,0,0,0,11.672-2.155c6.228-4.974,9.924-7.952,11.788-9.46a2.245,2.245,0,0,1,3.03,3.3l-4.356,4.536a1.493,1.493,0,0,0,1.341,2.5l.839-.151a1.471,1.471,0,0,0,.185-.046l18.348-5.8a1.765,1.765,0,0,1,1.1,3.356l-15.525,5.256a1.172,1.172,0,0,0,.523,2.272l17.161-2.179a1.82,1.82,0,0,1,.508,3.6l-16.7,2.584a1.137,1.137,0,0,0,.174,2.261H88.47a1.58,1.58,0,0,1,.144,3.153L73.4,272.066a1.034,1.034,0,0,0-.019,2.058l9.331,1.024a1.533,1.533,0,0,1-.179,3.057l-14.5-.109a80.572,80.572,0,0,1-15.425-1.609l-4.833-.981a80.553,80.553,0,0,1-10.291-2.81l-.4-.14C4.169,261.194-4.945,241.542,2.364,223.09c0,0,1.85,21.545,42.686,34.551" transform="translate(0 -179.585)" fill="#fff" stroke="#707070" stroke-width="1"/>
    <path id="Trazado_26060" data-name="Trazado 26060" d="M365.124,40.238s17.513,15.186-26.87,30.622a12.563,12.563,0,0,1-11.964-2.047c-6.23-4.975-9.927-7.954-11.79-9.462a2.245,2.245,0,0,0-3.029,3.3l4.356,4.537a1.492,1.492,0,0,1-1.341,2.5l-.839-.151a1.474,1.474,0,0,1-.185-.046l-18.348-5.8a1.765,1.765,0,0,0-1.1,3.356l15.525,5.256a1.172,1.172,0,0,1-.523,2.272L291.857,72.4a1.82,1.82,0,0,0-.508,3.6l16.7,2.584a1.137,1.137,0,0,1-.174,2.261H294.54A1.58,1.58,0,0,0,294.4,84l15.209,1.392a1.034,1.034,0,0,1,.019,2.058l-9.331,1.024a1.533,1.533,0,0,0,.179,3.057l14.5-.109A80.587,80.587,0,0,0,330.4,89.813l4.833-.981a80.559,80.559,0,0,0,10.291-2.81C357.446,81.9,369.5,76.139,376.976,66.03,385.281,54.8,375.027,37.424,365.124,40.238Z" transform="translate(-233.292 -32.146)" fill="#fff" stroke="#707070" stroke-width="1"/>
  </g>
</svg>
