<svg xmlns="http://www.w3.org/2000/svg" width="27.619" height="24.738" viewBox="0 0 27.619 24.738">
  <g id="Grupo_13440" data-name="Grupo 13440" transform="translate(-961.815 -1072.225)">
    <path id="Trazado_19546" data-name="Trazado 19546" d="M988.713,1091.167H962.535a.37.37,0,1,1,0-.739h26.179a.37.37,0,1,1,0,.739Z" transform="translate(0 5.446)" fill="#546e6e" stroke="#546e6e" stroke-width="0.7"/>
    <path id="Trazado_19547" data-name="Trazado 19547" d="M967.838,1093.745a.382.382,0,0,1-.2-.059.37.37,0,0,1-.168-.289l-.266-4.277a.371.371,0,0,1,.059-.224l10.447-16.115a.371.371,0,0,1,.512-.11l4.269,2.767a.37.37,0,0,1,.11.512l-10.447,16.115a.365.365,0,0,1-.179.145l-4,1.512A.384.384,0,0,1,967.838,1093.745Zm.111-4.549.227,3.656,3.421-1.291,10.179-15.7-3.649-2.363Zm3.892,2.667h0Z" transform="translate(1.54)" fill="#546e6e" stroke="#546e6e" stroke-width="0.7"/>
  </g>
</svg>
