<svg xmlns="http://www.w3.org/2000/svg" width="28.427" height="28.427" viewBox="0 0 28.427 28.427">
  <g id="bx-star" transform="translate(-3.732 -3.747)">
    <path id="Trazado_28566" data-name="Trazado 28566" d="M10.3,21.184l-2.078,9a1.392,1.392,0,0,0,2.132,1.474l7.593-5.062,7.593,5.062a1.4,1.4,0,0,0,2.116-1.542L25.1,21.188,31.429,15.5a1.395,1.395,0,0,0-.823-2.427l-7.95-.633-3.44-7.616a1.392,1.392,0,0,0-2.541,0l-3.44,7.616-7.95.632a1.395,1.395,0,0,0-.863,2.389Zm3.979-6.033a1.392,1.392,0,0,0,1.16-.817l2.509-5.552,2.509,5.552a1.392,1.392,0,0,0,1.16.817l5.539.439L22.592,19.7a1.4,1.4,0,0,0-.409,1.42l1.747,6.115-5.21-3.474a1.388,1.388,0,0,0-1.547,0l-5.444,3.63,1.464-6.34a1.4,1.4,0,0,0-.385-1.311L8.573,15.606l5.7-.455Z" transform="translate(0 0)" fill="#83989a" stroke="#fff" stroke-width="0.5"/>
  </g>
</svg>
