<svg xmlns="http://www.w3.org/2000/svg" width="26.487" height="26.487" viewBox="0 0 26.487 26.487">
  <g id="Grupo_13305" data-name="Grupo 13305" transform="translate(-9.891 -38.249)">
    <path id="Sustracción_7" data-name="Sustracción 7" d="M0,13.245A13.244,13.244,0,1,0,13.243,0,13.243,13.243,0,0,0,0,13.245Z" transform="translate(9.891 38.249)" fill="#666"/>
    <path id="Trazado_21074" data-name="Trazado 21074" d="M25.567,49.011H22.073V46.568c0-1.109.308-1.864,1.9-1.864l1.472,0A.557.557,0,0,0,26,44.147V41.682a.557.557,0,0,0-.556-.556h-2.4c-2.923,0-4.923,1.784-4.923,5.061v2.824H15.767a.557.557,0,0,0-.556.558l.011,2.922a.557.557,0,0,0,.556.554h2.356l-.015,9.063c.052,0,.105,0,.159,0h.008a13.179,13.179,0,0,0,3.788-.554l.015-8.512h3.13a.555.555,0,0,0,.553-.489l.346-2.923A.554.554,0,0,0,25.567,49.011Z" transform="translate(4.852 2.624)" fill="#fff"/>
  </g>
</svg>
