<svg xmlns="http://www.w3.org/2000/svg" width="37.674" height="37.679" viewBox="0 0 37.674 37.679">
  <path id="hand-holding-heart" d="M17.27,14.392S9.42,8.839,9.42,4.317A4.135,4.135,0,0,1,13.345,0,4.135,4.135,0,0,1,17.27,4.317,4.135,4.135,0,0,1,21.195,0,4.135,4.135,0,0,1,25.12,4.317C25.12,8.839,17.27,14.392,17.27,14.392Zm19.072-.763a4.091,4.091,0,0,0-5.763.246l-5.561,5.867a6.407,6.407,0,0,1,.1,1,6.647,6.647,0,0,1-5.679,6.548l-6.658.951-.446-3.109L19,24.178a3.474,3.474,0,0,0-.491-6.908H4.71A4.71,4.71,0,0,0,0,21.98v10.99a4.71,4.71,0,0,0,4.71,4.71H19.882l16.758-18.3A4.107,4.107,0,0,0,36.342,13.629Z" fill="#fff"/>
</svg>
