<svg xmlns="http://www.w3.org/2000/svg" xmlns:xlink="http://www.w3.org/1999/xlink" width="75.501" height="75.501" viewBox="0 0 75.501 75.501">
  <defs>
    <filter id="Trazado_20996" x="0" y="0" width="75.501" height="75.501" filterUnits="userSpaceOnUse">
      <feOffset dy="3" input="SourceAlpha"/>
      <feGaussianBlur stdDeviation="3" result="blur"/>
      <feFlood flood-opacity="0.141"/>
      <feComposite operator="in" in2="blur"/>
      <feComposite in="SourceGraphic"/>
    </filter>
  </defs>
  <g id="Grupo_18728" data-name="Grupo 18728" transform="translate(19861.609 -3770)">
    <g id="Grupo_18706" data-name="Grupo 18706" transform="translate(-19852.609 3776)">
      <g transform="matrix(1, 0, 0, 1, -9, -6)" filter="url(#Trazado_20996)">
        <path id="Trazado_20996-2" data-name="Trazado 20996" d="M28.751,0A28.751,28.751,0,1,1,0,28.751,28.751,28.751,0,0,1,28.751,0Z" transform="translate(9 6)" fill="#f6f0ec"/>
      </g>
    </g>
    <g id="Grupo_18712" data-name="Grupo 18712" transform="translate(-19886.129 3767.196)">
      <path id="Trazado_13852" data-name="Trazado 13852" d="M0,30.252Z" transform="translate(74.833 0)" fill="#f6f0ec"/>
      <g id="icn_profile_inactive" transform="translate(53.128 27.357)">
        <circle id="Elipse_25" data-name="Elipse 25" cx="4.331" cy="4.331" r="4.331" transform="translate(4.949)" fill="#f6f0ec" stroke="#666" stroke-linecap="round" stroke-linejoin="round" stroke-width="1.5"/>
        <path id="Trazado_60" data-name="Trazado 60" d="M1,21.141V17.924A7.446,7.446,0,0,1,8.424,10.5h3.712a7.446,7.446,0,0,1,7.424,7.424v3.217" transform="translate(-1 1.255)" fill="#f6f0ec" stroke="#666" stroke-linecap="round" stroke-linejoin="round" stroke-width="1.5"/>
      </g>
    </g>
  </g>
</svg>
