<svg xmlns="http://www.w3.org/2000/svg" width="25.68" height="25.71" viewBox="0 0 25.68 25.71">
  <g id="Grupo_13441" data-name="Grupo 13441" transform="translate(-23.951 -89.841)">
    <g id="Grupo_13061" data-name="Grupo 13061" transform="translate(24.203 90.091)">
      <path id="Trazado_21085" data-name="Trazado 21085" d="M41.23,108.415a.378.378,0,0,0-.476.244,11.04,11.04,0,0,0-.267,4.459.591.591,0,0,1-.267.6c-1.916,1.1-6.236,1.091-8.117-.023a.722.722,0,0,1-.337-.627V110.2c0-.406-.314-.848-1.173-.848h-.1l-.29.012c-1.614,0-2.775-.337-2.868-.836a18.194,18.194,0,0,1,.035-3.751.391.391,0,0,0-.232-.395,15.887,15.887,0,0,1-1.87-.871.561.561,0,0,1-.29-.337.524.524,0,0,1,.093-.383c2.1-3.286,2.241-4.238,2.253-4.366.824-7.037,6.479-7.583,8.2-7.583.163,0,.314,0,.418.012h.186a11.373,11.373,0,0,1,3.983.766.383.383,0,0,0,.29-.708,12.243,12.243,0,0,0-4.273-.813l-.163-.012h-.441c-1.87,0-8.07.592-8.964,8.256-.012.046-.128.917-2.125,4.006a1.387,1.387,0,0,0-.2.975,1.3,1.3,0,0,0,.662.848,14.884,14.884,0,0,0,1.684.813,17.535,17.535,0,0,0,0,3.669c.244,1.277,2.369,1.463,3.623,1.463l.337-.012h.058A.621.621,0,0,1,31,110.2v2.868a1.481,1.481,0,0,0,.72,1.289,9.3,9.3,0,0,0,4.459.941,9.61,9.61,0,0,0,4.424-.917A1.376,1.376,0,0,0,41.241,113a10.14,10.14,0,0,1,.244-4.122A.377.377,0,0,0,41.23,108.415Z" transform="translate(-24.203 -90.091)" fill="#546e6e" stroke="#546e6e" stroke-width="0.5"/>
    </g>
    <g id="Grupo_13062" data-name="Grupo 13062" transform="translate(33.67 92.785)">
      <path id="Trazado_21086" data-name="Trazado 21086" d="M33.576,90.323a7.141,7.141,0,0,0-6.352,10.427l-2.148,3.286a.4.4,0,0,0-.012.395.364.364,0,0,0,.337.2h8.175a7.153,7.153,0,1,0,0-14.306Zm0,13.54H26.1l1.881-2.891a.373.373,0,0,0,.012-.395,6.456,6.456,0,0,1-.8-3.1,6.387,6.387,0,1,1,6.387,6.387Z" transform="translate(-25.018 -90.323)" fill="#546e6e" stroke="#546e6e" stroke-width="0.5"/>
    </g>
    <g id="Grupo_13063" data-name="Grupo 13063" transform="translate(38.376 96.094)">
      <path id="Trazado_21087" data-name="Trazado 21087" d="M31.493,94.405,32.7,93.186a1.094,1.094,0,0,0,0-1.533l-.743-.731a1.079,1.079,0,0,0-1.521,0l-1.208,1.208L28.01,90.922a1.093,1.093,0,0,0-1.533,0l-.732.731a1.073,1.073,0,0,0,0,1.533l1.208,1.219-1.208,1.208a1.072,1.072,0,0,0,0,1.533l.732.732a1.072,1.072,0,0,0,1.533,0l1.219-1.208,1.208,1.208a1.021,1.021,0,0,0,.755.325,1.046,1.046,0,0,0,.766-.325l.743-.732a1.093,1.093,0,0,0,0-1.533Zm.662,2.195-.732.755a.367.367,0,0,1-.453,0l-1.486-1.486a.33.33,0,0,0-.255-.116.36.36,0,0,0-.279.116l-1.486,1.486a.366.366,0,0,1-.453,0L26.28,96.6a.316.316,0,0,1,0-.453l1.475-1.475a.385.385,0,0,0,0-.546L26.28,92.64a.3.3,0,0,1,0-.441l.732-.732a.315.315,0,0,1,.453,0l1.486,1.475a.372.372,0,0,0,.534,0l1.486-1.475a.315.315,0,0,1,.453,0l.732.732a.3.3,0,0,1,0,.441l-1.475,1.486a.385.385,0,0,0,0,.546l1.475,1.475A.316.316,0,0,1,32.155,96.6Z" transform="translate(-25.423 -90.608)" fill="#546e6e" stroke="#546e6e" stroke-width="0.5"/>
    </g>
  </g>
</svg>
