<svg xmlns="http://www.w3.org/2000/svg" width="11.472" height="17.913" viewBox="0 0 11.472 17.913">
  <g id="Grupo_1876" data-name="Grupo 1876" transform="translate(-606.339 -1071.331)">
    <path id="Trazado_2990" data-name="Trazado 2990" d="M612.165,1080.127a4.273,4.273,0,1,1,4.272-4.273A4.277,4.277,0,0,1,612.165,1080.127Zm0-8.063a3.79,3.79,0,1,0,3.789,3.79A3.795,3.795,0,0,0,612.165,1072.064Z" transform="translate(-0.193)" fill="#7d999a" stroke="#7d999a" stroke-width="0.5"/>
    <path id="Trazado_2991" data-name="Trazado 2991" d="M617.319,1090.4H606.831a.241.241,0,0,1-.242-.241v-3.623a5.486,5.486,0,1,1,10.972,0v3.623A.241.241,0,0,1,617.319,1090.4Zm-10.247-.482h10.006v-3.382a5,5,0,0,0-10.006,0Z" transform="translate(0 -1.403)" fill="#7d999a" stroke="#7d999a" stroke-width="0.5"/>
  </g>
</svg>
