<svg xmlns="http://www.w3.org/2000/svg" width="26.489" height="26.489" viewBox="0 0 26.489 26.489">
  <g id="Grupo_13307" data-name="Grupo 13307" transform="translate(-65.349 -38.249)">
    <path id="Sustracción_8" data-name="Sustracción 8" d="M0,13.245A13.244,13.244,0,1,0,13.245,0,13.244,13.244,0,0,0,0,13.245Z" transform="translate(65.349 38.249)" fill="#666"/>
    <g id="Grupo_13306" data-name="Grupo 13306" transform="translate(70.319 43.213)">
      <path id="Trazado_21076" data-name="Trazado 21076" d="M79.576,40.845H72.881a4.939,4.939,0,0,0-4.933,4.933v6.694a4.939,4.939,0,0,0,4.933,4.933h6.694a4.938,4.938,0,0,0,4.933-4.933V45.778A4.938,4.938,0,0,0,79.576,40.845Zm3.268,11.628a3.267,3.267,0,0,1-3.268,3.268H72.881a3.269,3.269,0,0,1-3.268-3.268V45.778a3.269,3.269,0,0,1,3.268-3.268h6.694a3.267,3.267,0,0,1,3.268,3.268Z" transform="translate(-67.948 -40.845)" fill="#fff"/>
      <path id="Trazado_21077" data-name="Trazado 21077" d="M74.322,42.935a4.284,4.284,0,1,0,4.283,4.283A4.288,4.288,0,0,0,74.322,42.935Zm0,6.9A2.617,2.617,0,1,1,76.94,47.22,2.616,2.616,0,0,1,74.322,49.836Z" transform="translate(-66.041 -38.939)" fill="#fff"/>
      <path id="Trazado_21078" data-name="Trazado 21078" d="M75.013,42.415a1.027,1.027,0,1,0,1.027,1.027A1.028,1.028,0,0,0,75.013,42.415Z" transform="translate(-62.441 -39.413)" fill="#fff"/>
    </g>
  </g>
</svg>
