<svg xmlns="http://www.w3.org/2000/svg" width="27.967" height="27.967" viewBox="0 0 27.967 27.967">
  <path id="Trazado_28513" data-name="Trazado 28513" d="M6.261,2.275a1.162,1.162,0,0,0-1.739-.108L2.75,3.941a2.94,2.94,0,0,0-.771,3.033A30.105,30.105,0,0,0,9.121,18.3,30.107,30.107,0,0,0,20.445,25.44a2.94,2.94,0,0,0,3.033-.771L25.25,22.9a1.162,1.162,0,0,0-.108-1.739l-3.953-3.074a1.162,1.162,0,0,0-.994-.209l-3.753.937a2.99,2.99,0,0,1-2.84-.787l-4.209-4.21a2.99,2.99,0,0,1-.788-2.84l.939-3.753a1.162,1.162,0,0,0-.209-.994ZM3.228.875A2.99,2.99,0,0,1,7.7,1.155l3.074,3.952a2.989,2.989,0,0,1,.54,2.56l-.937,3.753a1.162,1.162,0,0,0,.305,1.1l4.21,4.21a1.162,1.162,0,0,0,1.1.305l3.751-.937a2.99,2.99,0,0,1,2.56.54l3.952,3.074a2.99,2.99,0,0,1,.279,4.474L24.77,25.96a4.759,4.759,0,0,1-4.93,1.2A31.932,31.932,0,0,1,7.827,19.588,31.932,31.932,0,0,1,.253,7.577a4.764,4.764,0,0,1,1.2-4.93L3.23.875Z" transform="translate(0.298 0.252)" fill="#546e6e" stroke="#fff" stroke-width="0.5"/>
</svg>
