<svg xmlns="http://www.w3.org/2000/svg" width="18.334" height="23.334" viewBox="0 0 18.334 23.334">
  <g id="location-filled" transform="translate(-7.5 -3)">
    <path id="Trazado_25383" data-name="Trazado 25383" d="M16.667,3A9.178,9.178,0,0,0,7.5,12.167a9.074,9.074,0,0,0,1.847,5.5s.25.329.291.377l7.029,8.29L23.7,18.04c.037-.044.288-.373.288-.373v0a9.071,9.071,0,0,0,1.846-5.5A9.178,9.178,0,0,0,16.667,3Zm0,12.5A3.333,3.333,0,1,1,20,12.167,3.333,3.333,0,0,1,16.667,15.5Z" transform="translate(0)" fill="#666"/>
    <circle id="IconifyId-17e9079768a-d1151c-107" cx="3.333" cy="3.333" r="3.333" transform="translate(13.334 8.834)" fill="none"/>
  </g>
</svg>
