<svg xmlns="http://www.w3.org/2000/svg" width="14.731" height="18.195" viewBox="0 0 14.731 18.195">
  <g id="Grupo_9997" data-name="Grupo 9997" transform="translate(-502.164 -935.205)">
    <path id="Trazado_4233" data-name="Trazado 4233" d="M516.389,953.5H502.668a.244.244,0,0,1-.254-.232V943.209a.244.244,0,0,1,.254-.233h13.721a.245.245,0,0,1,.255.233v10.062A.245.245,0,0,1,516.389,953.5Zm-13.466-.464h13.211v-9.6H502.923Z" transform="translate(0 -0.353)" fill="#7d999a" stroke="#7d999a" stroke-width="0.5"/>
    <path id="Trazado_4234" data-name="Trazado 4234" d="M514.707,942.088a.251.251,0,0,1-.266-.232v-2.1c0-2.115-2.029-3.836-4.521-3.836s-4.522,1.72-4.522,3.836v2.1a.267.267,0,0,1-.53,0v-2.1c0-2.371,2.266-4.3,5.052-4.3s5.051,1.93,5.051,4.3v2.1A.25.25,0,0,1,514.707,942.088Z" transform="translate(-0.442 0)" fill="#7d999a" stroke="#7d999a" stroke-width="0.5"/>
    <path id="Trazado_4235" data-name="Trazado 4235" d="M510.281,950.771a.232.232,0,0,1-.232-.232v-3.063a.232.232,0,0,1,.464,0v3.063A.232.232,0,0,1,510.281,950.771Z" transform="translate(-0.752 -1.387)" fill="#7d999a" stroke="#7d999a" stroke-width="0.5"/>
  </g>
</svg>
