<svg xmlns="http://www.w3.org/2000/svg" width="21.626" height="19.041" viewBox="0 0 21.626 19.041">
  <g id="Grupo_17444" data-name="Grupo 17444" transform="translate(-1013.009 -431.888)">
    <path id="Trazado_21156" data-name="Trazado 21156" d="M1026.791,437.157a2.767,2.767,0,1,0-2.766,2.767A2.769,2.769,0,0,0,1026.791,437.157Zm-4.966,0a2.2,2.2,0,1,1,2.2,2.2A2.2,2.2,0,0,1,1021.825,437.157Z" fill="#546e6e" stroke="#546e6e" stroke-width="0.5"/>
    <path id="Trazado_21157" data-name="Trazado 21157" d="M1034.327,450.232l-5.491-7.793a.283.283,0,0,0-.231-.12h-1.441l1.392-2.975a5.143,5.143,0,0,0-.289-4.812,4.878,4.878,0,0,0-3.968-2.387c-.182-.009-.367-.009-.55,0a4.877,4.877,0,0,0-3.967,2.387,5.144,5.144,0,0,0-.288,4.814l1.391,2.973h-1.574a.281.281,0,0,0-.228.115l-5.762,7.793a.284.284,0,0,0,.228.452h20.546a.284.284,0,0,0,.232-.447Zm-14.061-15.406a4.32,4.32,0,0,1,3.512-2.115c.082,0,.164-.006.247-.006s.164,0,.246.006a4.32,4.32,0,0,1,3.512,2.115,4.576,4.576,0,0,1,.259,4.28l-4.017,8.587-4.017-8.585A4.58,4.58,0,0,1,1020.266,434.826Zm-6.155,15.286,5.343-7.226h1.7l2.618,5.6a.283.283,0,0,0,.513,0l2.618-5.6h1.559l5.091,7.226Z" fill="#546e6e" stroke="#546e6e" stroke-width="0.5"/>
  </g>
</svg>
