<svg xmlns="http://www.w3.org/2000/svg" width="38.089" height="37.985" viewBox="0 0 38.089 37.985">
  <g id="lupa" transform="translate(-148.158 -271.559)">
    <path id="Trazado_24005" data-name="Trazado 24005" d="M180.781,309.544c-2.643-2.655-5.816-5.687-8.459-8.342-1.114-1.114-1.192-1.762-.427-3.07l-2.111-2.111a13.563,13.563,0,1,1,2.837-2.837l2.111,2.111a1.945,1.945,0,0,1,2.772.13c2.915,2.915,5.842,5.829,8.744,8.757Zm-28.77-24.094a9.269,9.269,0,0,0,5.194,8.213c4.482,2.306,9.171,1.166,12.384-3.018a8.963,8.963,0,0,0,1.606-7.461,9.715,9.715,0,0,0-11.36-7.591A9.848,9.848,0,0,0,152.011,285.45Z" fill="#fff"/>
  </g>
</svg>
