<svg id="Grupo_18342" data-name="Grupo 18342" xmlns="http://www.w3.org/2000/svg" width="26.488" height="26.488" viewBox="0 0 26.488 26.488">
  <path id="Trazado_25902" data-name="Trazado 25902" d="M13.244,24.832A11.588,11.588,0,1,1,24.832,13.244,11.588,11.588,0,0,1,13.244,24.832Zm0,1.655A13.244,13.244,0,1,0,0,13.244,13.244,13.244,0,0,0,13.244,26.488Z" fill="#fff"/>
  <path id="Trazado_25903" data-name="Trazado 25903" d="M18.622,12a.828.828,0,0,1,.828.828v4.966h4.966a.828.828,0,0,1,0,1.655H19.45v4.966a.828.828,0,0,1-1.655,0V19.45H12.828a.828.828,0,0,1,0-1.655h4.966V12.828A.828.828,0,0,1,18.622,12Z" transform="translate(-5.378 -5.378)" fill="#fff"/>
</svg>
