<svg xmlns="http://www.w3.org/2000/svg" width="24.645" height="25.145" viewBox="0 0 24.645 25.145">
  <g id="bx-message-rounded" transform="translate(-3.5 -3.5)">
    <path id="Trazado_28563" data-name="Trazado 28563" d="M15.822,4C9.3,4,4,8.243,4,13.458c0,3.438,2.244,6.521,5.911,8.2v5.989l6.313-4.735c6.333-.169,11.42-4.345,11.42-9.452C27.645,8.243,22.341,4,15.822,4Zm0,16.551h-.394l-3.153,2.364V20.058l-.758-.292c-3.179-1.224-5.153-3.641-5.153-6.308,0-3.912,4.243-7.093,9.458-7.093s9.458,3.181,9.458,7.093S21.037,20.551,15.822,20.551Z" fill="#8f8f8f" stroke="#fff" stroke-width="1"/>
  </g>
</svg>
