<svg xmlns="http://www.w3.org/2000/svg" xmlns:xlink="http://www.w3.org/1999/xlink" width="29.216" height="17.706" viewBox="0 0 29.216 17.706">
  <defs>
    <clipPath id="clip-path">
      <rect id="Rectángulo_33058" data-name="Rectángulo 33058" width="29.216" height="17.706" fill="#666"/>
    </clipPath>
  </defs>
  <g id="Grupo_15505" data-name="Grupo 15505" clip-path="url(#clip-path)">
    <path id="Trazado_23768" data-name="Trazado 23768" d="M14.608,1.771A15.608,15.608,0,0,1,23.5,4.9a13.345,13.345,0,0,1,3.893,3.952A13.34,13.34,0,0,1,23.5,12.805a15.605,15.605,0,0,1-8.887,3.131A15.607,15.607,0,0,1,5.72,12.805,13.343,13.343,0,0,1,1.827,8.853,13.356,13.356,0,0,1,5.719,4.9a15.612,15.612,0,0,1,8.889-3.13m0-1.771C6.54,0,0,7.083,0,8.853s6.54,8.853,14.608,8.853,14.608-7.082,14.608-8.853S22.675,0,14.608,0m0,3.541A5.312,5.312,0,1,0,19.92,8.853a5.313,5.313,0,0,0-5.312-5.312m-1.43,5.312a2.247,2.247,0,1,1,2.247-2.247,2.247,2.247,0,0,1-2.247,2.247" transform="translate(0 0)" fill="#666"/>
  </g>
</svg>
