<svg xmlns="http://www.w3.org/2000/svg" width="14" height="14" viewBox="0 0 14 14">
  <path id="close" d="M-1847.666,13.721l0,0L-1853,8.306l-5.33,5.414h0a.971.971,0,0,1-.683.28.992.992,0,0,1-.985-1,1,1,0,0,1,.276-.694h0L-1854.5,7l-5.158-5.24A1.006,1.006,0,0,1-1860,1a.993.993,0,0,1,.985-1,.969.969,0,0,1,.681.279l0,0L-1853,5.695l5.33-5.415h0a.971.971,0,0,1,.683-.28A.993.993,0,0,1-1846,1a1,1,0,0,1-.276.694h0L-1851.5,7l5.157,5.24A1.006,1.006,0,0,1-1846,13a.993.993,0,0,1-.985,1A.97.97,0,0,1-1847.666,13.721Z" transform="translate(1860)" fill="#546e6e"/>
</svg>
