<svg xmlns="http://www.w3.org/2000/svg" width="26" height="26" viewBox="0 0 26 26">
  <path id="path" d="M26.024,5.224h0a3.665,3.665,0,0,1,0,6.933v15.1a1.238,1.238,0,1,1-2.476,0v-15.1a3.665,3.665,0,0,1,0-6.933V3.738a1.238,1.238,0,1,1,2.476,0V5.224Zm-1.238,4.7A1.17,1.17,0,0,0,26.024,8.69a1.238,1.238,0,1,0-2.476,0,1.17,1.17,0,0,0,1.238,1.238Zm-17.333,2.1h0a3.665,3.665,0,0,1,0,6.933v8.3A1.17,1.17,0,0,1,6.214,28.5a1.17,1.17,0,0,1-1.238-1.238v-8.3a3.665,3.665,0,0,1,0-6.933v-8.3A1.17,1.17,0,0,1,6.214,2.5,1.17,1.17,0,0,1,7.452,3.738v8.3Zm-1.238,4.7a1.238,1.238,0,1,0,0-2.476,1.238,1.238,0,1,0,0,2.476Zm10.524-13v15.1a3.665,3.665,0,0,1,0,6.933v1.486a1.238,1.238,0,1,1-2.476,0V25.776a3.665,3.665,0,0,1,0-6.933V3.738a1.238,1.238,0,1,1,2.476,0ZM15.5,23.548a1.238,1.238,0,1,0-1.238-1.238A1.17,1.17,0,0,0,15.5,23.548Z" transform="translate(-2.5 28.5) rotate(-90)" fill="#83989a"/>
</svg>
