<svg id="plus-circle" xmlns="http://www.w3.org/2000/svg" width="25.747" height="25.747" viewBox="0 0 25.747 25.747">
  <g id="Grupo_18080" data-name="Grupo 18080">
    <path id="Trazado_25902" data-name="Trazado 25902" d="M12.874,24.138A11.264,11.264,0,1,1,24.138,12.873,11.264,11.264,0,0,1,12.874,24.138Zm0,1.609A12.873,12.873,0,1,0,0,12.873,12.874,12.874,0,0,0,12.874,25.747Z" fill="#666"/>
    <path id="Trazado_25903" data-name="Trazado 25903" d="M18.437,12a.8.8,0,0,1,.8.8v4.828h4.828a.8.8,0,1,1,0,1.609H19.241v4.828a.8.8,0,1,1-1.609,0V19.241H12.8a.8.8,0,1,1,0-1.609h4.828V12.8A.8.8,0,0,1,18.437,12Z" transform="translate(-5.563 -5.563)" fill="#666"/>
  </g>
</svg>
