<svg xmlns="http://www.w3.org/2000/svg" width="28.845" height="28.845" viewBox="0 0 28.845 28.845">
  <g id="profile" transform="translate(0.25 0.25)">
    <g id="Grupo_18132" data-name="Grupo 18132" transform="translate(0 0)">
      <path id="Trazado_25922" data-name="Trazado 25922" d="M26.307,15.154A5.154,5.154,0,1,1,21.154,10,5.154,5.154,0,0,1,26.307,15.154Zm-2.577,0a2.577,2.577,0,1,1-2.577-2.577A2.577,2.577,0,0,1,23.73,15.154Z" transform="translate(-6.981 -4.846)" fill="#83989a" stroke="#fff" stroke-width="0.5" fill-rule="evenodd"/>
      <path id="Trazado_25923" data-name="Trazado 25923" d="M16.173,2A14.172,14.172,0,1,0,30.345,16.172,14.173,14.173,0,0,0,16.173,2ZM4.577,16.172a11.552,11.552,0,0,0,2.458,7.14A11.6,11.6,0,0,1,25.394,23.2,11.6,11.6,0,1,0,4.577,16.172Zm11.6,11.6a11.548,11.548,0,0,1-7.308-2.592,9.021,9.021,0,0,1,14.721-.088A11.549,11.549,0,0,1,16.173,27.768Z" transform="translate(-2 -2)" fill="#83989a" stroke="#fff" stroke-width="0.5" fill-rule="evenodd"/>
    </g>
  </g>
</svg>
