<svg xmlns="http://www.w3.org/2000/svg" width="20.491" height="18.045" viewBox="0 0 20.491 18.045">
  <g id="Grupo_13334" data-name="Grupo 13334" transform="translate(-1013.009 -431.888)">
    <path id="Trazado_21156" data-name="Trazado 21156" d="M1026.494,437.008a2.618,2.618,0,1,0-2.617,2.618A2.621,2.621,0,0,0,1026.494,437.008Zm-4.7,0a2.081,2.081,0,1,1,2.082,2.082A2.083,2.083,0,0,1,1021.794,437.008Z" transform="translate(-0.429 -0.121)" fill="#7d999a" stroke="#7d999a" stroke-width="0.5"/>
    <path id="Trazado_21157" data-name="Trazado 21157" d="M1033.2,449.26l-5.2-7.374a.268.268,0,0,0-.219-.114h-1.364l1.317-2.815a4.867,4.867,0,0,0-.274-4.553,4.616,4.616,0,0,0-3.755-2.259c-.172-.009-.347-.009-.52,0a4.615,4.615,0,0,0-3.754,2.259,4.867,4.867,0,0,0-.273,4.555l1.316,2.813h-1.49a.266.266,0,0,0-.216.109l-5.452,7.374a.268.268,0,0,0,.216.428h19.442a.268.268,0,0,0,.22-.423Zm-13.306-14.578a4.088,4.088,0,0,1,3.323-2c.078,0,.155-.006.234-.006s.155,0,.233.006a4.088,4.088,0,0,1,3.323,2,4.331,4.331,0,0,1,.245,4.05l-3.8,8.126-3.8-8.124A4.334,4.334,0,0,1,1019.89,434.682Zm-5.824,14.465,5.056-6.838h1.6l2.477,5.294a.267.267,0,0,0,.485,0l2.477-5.294h1.475l4.817,6.838Z" transform="translate(0)" fill="#7d999a" stroke="#7d999a" stroke-width="0.5"/>
  </g>
</svg>
