<svg xmlns="http://www.w3.org/2000/svg" width="28.752" height="28.134" viewBox="0 0 28.752 28.134">
  <g id="Grupo_18646" data-name="Grupo 18646" transform="translate(-300.416 -175.96)">
    <path id="Trazado_28563" data-name="Trazado 28563" d="M4.494,38.94.318,43.116l-.007.007c-.023.023-.045.047-.065.072s-.021.028-.031.041-.022.029-.032.044-.02.033-.03.05-.017.027-.025.042-.017.034-.025.051-.015.03-.021.045-.012.033-.018.05-.012.033-.017.05-.009.034-.013.05-.009.035-.013.053-.006.039-.009.058-.005.031-.007.047c0,.036-.005.072-.005.107s0,.072.005.107c0,.016,0,.032.007.048s.005.038.009.057.009.036.013.054.008.033.013.049.012.034.018.052.011.033.018.049.014.031.022.047.015.033.024.05.017.029.026.043.019.032.029.048.023.031.034.046.019.026.029.039.047.054.072.08h0L4.494,48.83a1.088,1.088,0,0,0,1.539-1.539L3.715,44.973H16.368a1.088,1.088,0,0,0,0-2.176H3.715l2.318-2.319A1.088,1.088,0,1,0,4.494,38.94" transform="translate(328.918 233.912) rotate(180)" fill="#83989a" stroke="#83989a" stroke-width="0.5"/>
    <path id="Trazado_28564" data-name="Trazado 28564" d="M34.257,3.581V8.276a1.088,1.088,0,1,0,2.176,0V3.581a1.407,1.407,0,0,1,1.405-1.405h11.5a1.407,1.407,0,0,1,1.405,1.405V24.053a1.407,1.407,0,0,1-1.405,1.405h-11.5a1.407,1.407,0,0,1-1.405-1.405v-4.7a1.088,1.088,0,1,0-2.176,0v4.7a3.585,3.585,0,0,0,3.581,3.581h11.5a3.585,3.585,0,0,0,3.581-3.581V3.581A3.585,3.585,0,0,0,49.34,0h-11.5a3.585,3.585,0,0,0-3.581,3.581" transform="translate(353.588 203.845) rotate(180)" fill="#83989a" stroke="#83989a" stroke-width="0.5"/>
  </g>
</svg>
