<svg xmlns="http://www.w3.org/2000/svg" width="49" height="48" viewBox="0 0 49 48">
  <g id="Grupo_18443" data-name="Grupo 18443" transform="translate(-161 -580)">
    <ellipse id="Elipse_950" data-name="Elipse 950" cx="24.5" cy="24" rx="24.5" ry="24" transform="translate(161 580)" fill="#fff"/>
    <g id="plus-circle" transform="translate(161.544 580.044)">
      <g id="Grupo_18080" data-name="Grupo 18080">
        <path id="Trazado_25902" data-name="Trazado 25902" d="M23.955,44.916A20.961,20.961,0,1,1,44.916,23.955,20.961,20.961,0,0,1,23.955,44.916Zm0,2.994A23.955,23.955,0,1,0,0,23.955,23.955,23.955,0,0,0,23.955,47.911Z" fill="#666"/>
        <path id="Trazado_25903" data-name="Trazado 25903" d="M23.978,12a1.5,1.5,0,0,1,1.5,1.5V22.48h8.983a1.5,1.5,0,1,1,0,2.994H25.475v8.983a1.5,1.5,0,1,1-2.994,0V25.475H13.5a1.5,1.5,0,0,1,0-2.994H22.48V13.5A1.5,1.5,0,0,1,23.978,12Z" transform="translate(-0.022 -0.022)" fill="#666"/>
      </g>
    </g>
  </g>
</svg>
