<svg xmlns="http://www.w3.org/2000/svg" width="19.431" height="15.642" viewBox="0 0 19.431 15.642">
  <g id="Grupo_13320" data-name="Grupo 13320" transform="translate(-653.703 -890.806)">
    <path id="Trazado_21101" data-name="Trazado 21101" d="M672.6,906.2H654.238a.268.268,0,0,1-.258-.279V891.335a.269.269,0,0,1,.258-.279H672.6a.269.269,0,0,1,.258.279v14.583A.269.269,0,0,1,672.6,906.2Zm-18.1-.558h17.848V891.614H654.495Z" fill="#7d999a" stroke="#7d999a" stroke-width="0.5"/>
    <path id="Trazado_21102" data-name="Trazado 21102" d="M663.419,900.968a.241.241,0,0,1-.174-.076l-9.181-9.345a.3.3,0,0,1-.015-.4.24.24,0,0,1,.363-.016l9.007,9.167,9.007-9.167a.24.24,0,0,1,.363.016.3.3,0,0,1-.014.4l-9.181,9.345A.244.244,0,0,1,663.419,900.968Z" transform="translate(0)" fill="#7d999a" stroke="#7d999a" stroke-width="0.5"/>
  </g>
</svg>
