<svg xmlns="http://www.w3.org/2000/svg" width="27.706" height="27.266" viewBox="0 0 27.706 27.266">
  <g id="star-review" transform="translate(-1.383 -2.435)">
    <path id="Trazado_25906" data-name="Trazado 25906" d="M27,39h7.5v1.875H27Z" transform="translate(-9.409 -13.505)" fill="#546e6e" stroke="#fff" stroke-width="0.5"/>
    <path id="Trazado_25907" data-name="Trazado 25907" d="M27,33H38.247v1.875H27Z" transform="translate(-9.409 -11.254)" fill="#546e6e" stroke="#fff" stroke-width="0.5"/>
    <path id="Trazado_25908" data-name="Trazado 25908" d="M27,27H38.247v1.875H27Z" transform="translate(-9.409 -9.003)" fill="#546e6e" stroke="#fff" stroke-width="0.5"/>
    <path id="Trazado_25909" data-name="Trazado 25909" d="M19.981,11.639,15.717,3l-4.264,8.639L1.92,13.024l6.9,6.725L7.189,29.244l6.653-3.5V23.629L9.68,25.817l.986-5.751.167-.972-.706-.687L5.948,14.333l5.775-.839.975-.142.437-.884,2.582-5.233L18.3,12.468l.437.884.975.142L26.7,14.511l.267-1.857Z" transform="translate(0 0)" fill="#546e6e" stroke="#fff" stroke-width="0.5"/>
  </g>
</svg>
