<svg xmlns="http://www.w3.org/2000/svg" width="10.196" height="17.195" viewBox="0 0 10.196 17.195">
  <g id="Grupo_9996" data-name="Grupo 9996" transform="translate(-401.527 -1071.469)">
    <path id="Trazado_4309" data-name="Trazado 4309" d="M411.238,1088.414h-9.226a.235.235,0,0,1-.235-.235v-16.225a.235.235,0,0,1,.235-.235h9.226a.235.235,0,0,1,.234.235v16.225A.235.235,0,0,1,411.238,1088.414Zm-8.992-.469H411v-15.757h-8.757Z" transform="translate(0)" fill="#7d999a" stroke="#7d999a" stroke-width="0.5"/>
    <path id="Trazado_4310" data-name="Trazado 4310" d="M411.14,1088.377h-8.978a.235.235,0,0,1,0-.469h8.978a.235.235,0,0,1,0,.469Z" transform="translate(-0.026 -2.788)" fill="#7d999a" stroke="#7d999a" stroke-width="0.5"/>
    <path id="Trazado_4311" data-name="Trazado 4311" d="M408.344,1090.078h-1.915a.234.234,0,1,1,0-.469h1.915a.234.234,0,1,1,0,.469Z" transform="translate(-0.761 -3.081)" fill="#7d999a" stroke="#7d999a" stroke-width="0.5"/>
  </g>
</svg>
