<svg xmlns="http://www.w3.org/2000/svg" width="21" height="21" viewBox="0 0 21 21">
  <g id="send-fill" transform="translate(0.002 -0.001)" opacity="0.7">
    <g id="Grupo_13583" data-name="Grupo 13583" transform="translate(-0.002 0.001)">
      <path id="Trazado_796" data-name="Trazado 796" d="M20.951.9A.656.656,0,0,0,20.1.048L1.005,7.685H1l-.593.236A.656.656,0,0,0,.3,9.085l.538.341v0L7.4,13.6l4.171,6.556,0,0,.341.538a.656.656,0,0,0,1.163-.109L20.951.9ZM18.545,3.381l.618-1.546-1.546.618L7.782,12.289l.444.282a.656.656,0,0,1,.2.2l.282.444,9.836-9.836Z" transform="translate(0.002 -0.001)" fill="#83989a" fill-rule="evenodd"/>
    </g>
  </g>
</svg>
