<svg xmlns="http://www.w3.org/2000/svg" width="31.012" height="29.345" viewBox="0 0 31.012 29.345">
  <g id="work-alt" transform="translate(0.5 0.5)">
    <g id="Grupo_18133" data-name="Grupo 18133" transform="translate(0 0)">
      <path id="Trazado_25924" data-name="Trazado 25924" d="M29.343,13a5,5,0,0,0-5-5H17.671a5,5,0,0,0-5,5H11a5,5,0,0,0-5,5V31.343a5,5,0,0,0,5,5H31.01a5,5,0,0,0,5-5V18a5,5,0,0,0-5-5Zm-5-1.667H17.671A1.667,1.667,0,0,0,16,13h10A1.667,1.667,0,0,0,24.341,11.335ZM11,16.337H31.01A1.667,1.667,0,0,1,32.678,18V31.343A1.667,1.667,0,0,1,31.01,33.01H11a1.667,1.667,0,0,1-1.667-1.667V18A1.667,1.667,0,0,1,11,16.337Z" transform="translate(-6 -8)" fill="#83989a" stroke="#fff" stroke-width="1" fill-rule="evenodd"/>
    </g>
  </g>
</svg>
